<?xml version="1.0" standalone="no"?>
<!DOCTYPE svg PUBLIC "-//W3C//DTD SVG 20010904//EN"
 "http://www.w3.org/TR/2001/REC-SVG-20010904/DTD/svg10.dtd">
<svg version="1.0" xmlns="http://www.w3.org/2000/svg"
 width="414.000000pt" height="379.000000pt" viewBox="0 0 414.000000 379.000000"
 preserveAspectRatio="xMidYMid meet">
<metadata>
Created by potrace 1.11, written by Peter Selinger 2001-2013
</metadata>
<g transform="translate(0.000000,379.000000) scale(0.100000,-0.100000)"
fill="#000000" stroke="none">
<path d="M3915 3765 c-111 -33 -375 -185 -640 -367 -99 -68 -186 -127 -192
-132 -8 -4 -50 10 -100 32 -74 33 -161 66 -293 112 -14 5 -88 23 -165 41 -173
40 -197 50 -231 94 -24 32 -26 42 -21 90 8 74 -1 80 -96 56 -104 -27 -151 -53
-228 -128 l-67 -64 -132 -19 c-211 -31 -385 -85 -597 -185 -95 -45 -96 -45
-124 -28 -16 10 -149 99 -296 198 -285 192 -467 292 -552 302 -71 8 -81 -10
-81 -152 0 -297 83 -567 235 -770 29 -38 69 -87 89 -109 l36 -39 -95 -195
c-108 -219 -166 -307 -237 -360 -26 -20 -48 -40 -48 -44 0 -4 17 -8 38 -8 21
0 41 -3 45 -6 3 -3 -30 -54 -74 -112 -43 -58 -79 -108 -79 -111 0 -4 41 -35
90 -70 112 -79 208 -181 280 -297 270 -438 708 -845 1418 -1322 202 -136 238
-157 272 -157 34 0 71 22 277 160 663 446 1112 852 1358 1230 82 126 277 319
363 359 34 17 62 33 62 38 0 4 -36 56 -80 114 -44 58 -80 107 -80 110 0 2 20
4 45 4 25 0 45 2 45 5 0 2 -21 24 -46 47 -66 61 -128 152 -169 248 -19 47 -35
88 -35 92 0 14 -72 161 -108 220 -39 65 -44 50 48 164 123 154 180 271 229
474 41 169 54 390 27 454 -16 40 -38 47 -91 31z m35 -97 c0 -10 -39 -86 -86
-170 -48 -84 -136 -245 -197 -358 -60 -113 -116 -216 -124 -229 -15 -24 -16
-23 -189 150 -96 96 -174 178 -174 184 0 11 344 248 465 321 44 26 127 69 185
95 106 47 119 48 120 7z m-3620 -25 c132 -71 237 -137 430 -271 197 -137 187
-113 93 -224 -44 -51 -105 -126 -137 -165 -51 -65 -86 -90 -86 -64 0 4 -41 72
-91 151 -50 79 -115 184 -144 234 -66 115 -195 368 -195 384 0 14 53 -4 130
-45z m1879 -72 c35 -96 90 -134 236 -164 473 -95 849 -317 1099 -647 110 -145
136 -191 211 -377 31 -76 78 -173 105 -215 l49 -78 -33 0 c-18 0 -35 -3 -39
-6 -3 -3 39 -59 94 -123 54 -65 99 -122 99 -127 -1 -5 -28 -29 -62 -54 -99
-73 -223 -207 -307 -330 -208 -305 -424 -525 -786 -800 -60 -46 -137 -105
-170 -130 -82 -62 -164 -120 -171 -120 -3 0 70 85 163 188 254 286 416 472
578 666 273 326 359 440 352 461 -4 8 -10 15 -15 15 -13 0 -204 -218 -988
-1131 -142 -166 -315 -361 -339 -383 -31 -30 -198 -136 -212 -136 -7 0 -50 24
-96 53 -57 37 -106 81 -161 143 -43 49 -122 139 -176 199 -94 106 -320 366
-575 660 -152 176 -434 495 -493 558 -31 34 -48 45 -55 38 -17 -17 2 -46 124
-196 199 -245 377 -453 703 -820 161 -181 213 -239 315 -349 52 -56 44 -52
-93 44 -229 161 -502 387 -681 565 -217 217 -336 360 -431 519 -59 100 -206
263 -314 348 l-45 36 20 25 c11 14 47 58 80 97 114 137 110 131 94 141 -8 5
-25 9 -38 9 l-25 0 25 28 c43 46 93 133 184 321 174 356 441 607 830 777 129
56 321 110 480 134 184 27 179 25 237 92 40 47 70 69 123 94 39 18 73 33 76
34 4 0 16 -27 28 -59z m-1926 -196 c87 -159 170 -296 250 -413 l70 -104 -58
-52 -58 -52 -32 35 c-157 175 -261 439 -280 711 l-5 85 26 -50 c14 -27 53 -99
87 -160z m3662 78 c-24 -234 -129 -481 -271 -642 l-39 -43 -33 46 -33 46 29
38 c67 86 235 378 307 534 22 48 41 87 43 88 2 0 0 -30 -3 -67z"/>
<path d="M1089 2490 c-135 -23 -217 -125 -207 -259 9 -122 119 -285 242 -356
105 -61 167 -76 347 -84 226 -10 244 -21 285 -185 l17 -68 38 59 c54 86 73
158 66 257 -6 92 -26 147 -92 245 -88 133 -222 249 -375 325 -123 62 -224 82
-321 66z m236 -307 c0 -81 18 -134 66 -192 l20 -24 30 29 c45 43 71 99 72 160
1 30 6 54 11 54 15 0 99 -51 129 -78 33 -31 36 -76 7 -131 -39 -78 -119 -123
-220 -125 -54 -1 -73 4 -111 26 -79 46 -137 131 -164 236 -15 57 -15 66 -1 87
17 26 36 32 111 34 l50 1 0 -77z"/>
<path d="M2905 2494 c-11 -2 -45 -9 -75 -16 -82 -17 -220 -79 -293 -131 -87
-63 -192 -178 -250 -275 -66 -113 -79 -153 -80 -253 0 -80 3 -93 36 -160 64
-131 76 -135 96 -35 14 75 37 115 81 140 30 18 54 21 165 22 163 2 218 13 325
66 110 54 211 152 261 253 29 59 34 80 34 140 0 48 -6 81 -19 105 -26 49 -85
109 -125 126 -36 15 -124 26 -156 18z m45 -236 c25 -27 22 -65 -10 -150 -48
-127 -146 -208 -251 -208 -144 0 -290 147 -238 239 15 26 138 105 148 95 3 -3
7 -25 8 -50 4 -52 39 -128 77 -163 25 -24 26 -24 46 -6 41 37 70 118 70 194
l0 71 65 0 c54 0 68 -4 85 -22z"/>
<path d="M1830 1311 c-12 -8 -7 -17 28 -50 78 -75 179 -151 200 -151 33 0 237
171 229 193 -5 15 -434 22 -457 8z"/>
<path d="M1970 769 c-78 -25 -90 -34 -90 -65 0 -35 41 -52 83 -35 18 7 71 15
119 18 69 5 98 2 133 -11 56 -22 89 -18 93 10 5 34 -29 63 -93 80 -101 26
-172 27 -245 3z"/>
</g>
</svg>
